HIERARCHY
ROOT Hips
{
	OFFSET 0.000000 0.000000 0.000000
	CHANNELS 6 Xposition Yposition Zposition Xrotation Yrotation Zrotation
	JOINT Chest
	{
		OFFSET 0.000000 0.009282 11.569106
		CHANNELS 3 Xrotation Yrotation Zrotation
		JOINT Chest2
		{
			OFFSET 0.000000 -0.016863 9.269641
			CHANNELS 3 Xrotation Yrotation Zrotation
			JOINT Chest3
			{
				OFFSET 0.000000 0.000000 8.374491
				CHANNELS 3 Xrotation Yrotation Zrotation
				JOINT Chest4
				{
					OFFSET 0.000000 0.000000 8.374493
					CHANNELS 3 Xrotation Yrotation Zrotation
					JOINT Neck
					{
						OFFSET 0.000000 -0.000001 12.152554
						CHANNELS 3 Xrotation Yrotation Zrotation
						JOINT Head
						{
							OFFSET 0.000000 -0.040100 7.802319
							CHANNELS 3 Xrotation Yrotation Zrotation
							End Site
							{
								OFFSET 0.000000 -0.020946 14.853096
							}
						}
					}
					JOINT RightCollar
					{
						OFFSET -2.894404 0.000000 6.791374
						CHANNELS 3 Xrotation Yrotation Zrotation
						JOINT RightShoulder
						{
							OFFSET -13.574684 0.000000 0.000000
							CHANNELS 3 Xrotation Yrotation Zrotation
							JOINT RightElbow
							{
								OFFSET -23.923903 0.000000 0.000000
								CHANNELS 3 Xrotation Yrotation Zrotation
								JOINT RightWrist
								{
									OFFSET -19.846718 -0.012765 0.000000
									CHANNELS 3 Xrotation Yrotation Zrotation
									End Site
									{
										OFFSET -14.973145 0.000000 0.000000
									}
								}
							}
						}
					}
					JOINT LeftCollar
					{
						OFFSET 2.894404 0.000000 6.791374
						CHANNELS 3 Xrotation Yrotation Zrotation
						JOINT LeftShoulder
						{
							OFFSET 13.574684 0.000000 0.000000
							CHANNELS 3 Xrotation Yrotation Zrotation
							JOINT LeftElbow
							{
								OFFSET 23.923903 0.000000 0.000000
								CHANNELS 3 Xrotation Yrotation Zrotation
								JOINT LeftWrist
								{
									OFFSET 19.846718 -0.012765 0.000000
									CHANNELS 3 Xrotation Yrotation Zrotation
									End Site
									{
										OFFSET 14.973145 0.000000 0.000000
									}
								}
							}
						}
					}
				}
			}
		}
	}
	JOINT RightHip
	{
		OFFSET -9.469263 -0.004642 0.045487
		CHANNELS 3 Xrotation Yrotation Zrotation
		JOINT RightKnee
		{
			OFFSET 0.000000 -0.002666 -40.478676
			CHANNELS 3 Xrotation Yrotation Zrotation
			JOINT RightAnkle
			{
				OFFSET 0.000000 -0.049110 -35.224068
				CHANNELS 3 Xrotation Yrotation Zrotation
				JOINT RightToe
				{
					OFFSET 0.000000 -12.539530 -6.151390
					CHANNELS 3 Xrotation Yrotation Zrotation
					End Site
					{
						OFFSET 0.000000 -5.044995 -1.291870
					}
				}
			}
		}
	}
	JOINT LeftHip
	{
		OFFSET 9.469263 -0.004642 0.045487
		CHANNELS 3 Xrotation Yrotation Zrotation
		JOINT LeftKnee
		{
			OFFSET 0.000000 -0.002666 -40.478676
			CHANNELS 3 Xrotation Yrotation Zrotation
			JOINT LeftAnkle
			{
				OFFSET 0.000000 -0.049110 -35.224068
				CHANNELS 3 Xrotation Yrotation Zrotation
				JOINT LeftToe
				{
					OFFSET 0.000000 -12.539530 -6.151390
					CHANNELS 3 Xrotation Yrotation Zrotation
					End Site
					{
						OFFSET 0.000000 -5.044995 -1.291870
					}
				}
			}
		}
	}
}
MOTION
Frames: 15
Frame Time: 0.016667
-21.961666 -11.996505 83.156731 4.660386 6.877582 -113.981159 2.564819 -0.321597 1.876238 1.139693 -0.249281 0.793416 1.139692 -0.249281 0.793415 0.854446 -0.188442 0.594597 19.974975 -7.013754 -15.911361 0.783340 -8.024081 -31.241712 -4.946984 -2.556811 -16.992355 -55.324676 -36.417503 -28.652083 -41.153310 9.691757 -8.447493 -1.196500 8.031421 -7.725036 11.389247 9.608530 -25.877082 0.821349 47.878472 -47.128698 34.686009 35.653868 -63.297658 -12.805145 -23.321360 -9.666848 8.955149 0.786571 0.703883 5.251359 0.643798 0.968031 -4.610463 -1.740558 4.147060 -0.158227 0.081033 -0.038380 10.827351 -0.258013 -1.189232 0.131925 0.539618 -3.269776 -3.301085 -0.315186 3.010433 0.145904 0.108044 0.059247 
-21.998268 -11.966371 83.163170 4.744994 6.832511 -114.148799 2.523410 -0.182973 1.806042 1.121246 -0.184140 0.767682 1.121246 -0.184140 0.767682 0.840703 -0.139514 0.575424 19.625790 -7.111824 -16.446564 0.168698 -7.970070 -32.270595 -5.261217 -2.327068 -17.055300 -55.833282 -34.492927 -27.607170 -41.910140 9.988500 -8.323708 -2.381590 13.288917 -6.371876 11.448392 9.529381 -25.941680 1.273789 47.743753 -47.467113 35.433027 36.647295 -64.223565 -12.432375 -22.039554 -7.391423 8.969771 0.708035 0.657720 5.235140 0.668041 0.985927 -4.638666 -1.811202 4.273549 -0.138269 0.114217 -0.040801 10.901461 -0.322477 -1.134201 0.076827 0.527480 -3.206334 -3.306138 -0.362626 3.032459 0.136334 0.124789 0.061816 
-22.024948 -11.927175 83.171600 4.835894 6.805954 -114.348213 2.515481 -0.035104 1.755469 1.118367 -0.113242 0.750780 1.118367 -0.113241 0.750779 0.838637 -0.086306 0.562880 19.253712 -7.200763 -16.964865 -0.484100 -7.894817 -33.266757 -5.612158 -2.152573 -17.145773 -56.313708 -32.755794 -26.322817 -43.038846 10.142163 -7.876570 -4.870107 19.455177 -3.651495 11.448165 9.396605 -25.969213 1.689376 47.651180 -47.725756 35.980347 37.455286 -64.986306 -11.622180 -20.199407 -5.148469 8.988807 0.627009 0.633063 5.230322 0.702394 0.999923 -4.661791 -1.885403 4.489641 -0.121138 0.143468 -0.042266 10.993172 -0.384084 -1.042640 0.025562 0.511628 -3.128232 -3.309785 -0.402357 3.091488 0.122988 0.139765 0.063377 
-22.037979 -11.890985 83.181747 4.945904 6.785034 -114.568842 2.508108 0.075794 1.724062 1.117183 -0.048371 0.742875 1.117183 -0.048370 0.742875 0.837830 -0.037636 0.557073 18.883103 -7.257221 -17.485143 -1.121957 -7.756989 -34.254457 -6.037103 -1.919506 -17.286370 -56.724615 -31.223773 -24.820814 -44.387227 10.282019 -7.219460 -8.484561 25.083656 -0.165184 11.439468 9.325996 -26.009418 2.048699 47.600336 -47.903494 36.447932 38.159796 -65.545077 -11.958945 -18.143715 -2.943069 9.006065 0.529486 0.642063 5.239686 0.727954 1.030201 -4.700313 -1.953817 4.612301 -0.088369 0.172399 -0.046809 11.075807 -0.467732 -0.915206 0.004657 0.509286 -3.020727 -3.300047 -0.446032 3.082355 0.089046 0.156556 0.061034 
-22.042149 -11.862826 83.191010 5.033825 6.783796 -114.810521 2.493530 0.206795 1.707805 1.112020 0.015245 0.739722 1.112020 0.015245 0.739728 0.834035 0.010088 0.554821 18.517324 -7.278647 -18.005123 -1.737512 -7.553857 -35.228033 -6.434035 -1.715079 -17.390080 -57.077524 -29.805276 -23.068945 -45.739321 10.357036 -6.492996 -12.610916 29.606961 3.623907 11.441668 9.311377 -26.068252 2.257119 47.479674 -47.965656 37.184055 39.069980 -66.197729 -13.144214 -17.716922 -1.137337 9.021419 0.476439 0.679880 5.242894 0.749176 1.104915 -4.712451 -2.028421 4.656885 -0.068991 0.196640 -0.047370 11.152364 -0.513512 -0.741471 0.003172 0.520898 -2.910718 -3.313653 -0.516288 3.086482 0.075225 0.176750 0.058575 
-22.037083 -11.848322 83.197845 5.114685 6.783171 -115.073484 2.502714 0.334864 1.686407 1.116415 0.077776 0.734949 1.116415 0.077777 0.734951 0.837406 0.056990 0.551360 18.117898 -7.270349 -18.514951 -2.402948 -7.288002 -36.173577 -6.694434 -1.601712 -17.356253 -57.535328 -28.464441 -21.122278 -47.101534 10.313962 -5.770886 -16.730653 33.415297 7.540598 11.449082 9.247082 -26.128421 2.321368 47.259735 -47.889861 37.959251 39.902590 -66.950867 -12.777184 -18.017083 -0.044211 9.025848 0.433078 0.740227 5.241871 0.769509 1.221620 -4.728473 -2.100920 4.709484 -0.038058 0.217357 -0.047497 11.215992 -0.547459 -0.519398 0.013129 0.533335 -2.818697 -3.330250 -0.593930 3.037402 0.064435 0.198925 0.053510 
-22.017286 -11.834248 83.202904 5.183788 6.759864 -115.362797 2.528482 0.457275 1.673282 1.127148 0.140231 0.733751 1.127147 0.140232 0.733745 0.845531 0.103822 0.550566 17.683816 -7.242488 -19.013170 -3.122574 -6.977379 -37.091629 -6.940592 -1.475897 -17.355967 -58.058739 -27.327715 -19.078431 -48.534563 10.108947 -5.054785 -20.993529 36.758132 11.833006 11.397810 9.110411 -26.157497 2.550342 47.034499 -47.838549 38.501599 40.230166 -67.574722 -12.159270 -17.868700 0.523416 8.983435 0.401653 0.820166 5.254007 0.784554 1.368511 -4.735103 -2.187982 4.769682 -0.009710 0.246064 -0.043912 11.245162 -0.570161 -0.260105 0.025917 0.541240 -2.679082 -3.345724 -0.669300 2.946182 0.058050 0.218039 0.050108 
-21.985062 -11.828698 83.208344 5.238363 6.725378 -115.690127 2.563833 0.580649 1.693472 1.142168 0.203949 0.746317 1.142169 0.203948 0.746319 0.856876 0.151567 0.560122 17.238662 -7.208233 -19.505296 -3.856347 -6.649953 -37.995188 -7.339890 -1.270773 -17.513908 -58.489983 -26.509260 -16.838815 -50.174139 9.855041 -4.356861 -25.802513 39.522340 16.837741 11.390884 8.904866 -26.200870 2.794112 46.915688 -47.878236 38.656378 40.216263 -67.827112 -12.494238 -16.683044 1.424201 8.906200 0.378488 0.939922 5.277209 0.799581 1.496783 -4.735519 -2.299482 4.797654 0.021259 0.290403 -0.040885 11.256818 -0.575477 0.039351 0.030252 0.546394 -2.548125 -3.345664 -0.742915 2.883043 0.046652 0.233785 0.045709 
-21.942055 -11.827326 83.214577 5.276186 6.684815 -116.045679 2.542679 0.696162 1.730805 1.132884 0.263713 0.766438 1.132884 0.263714 0.766437 0.849995 0.196365 0.575316 16.843697 -7.147465 -19.984148 -4.487958 -6.289452 -38.860556 -7.690666 -1.078209 -17.629719 -58.941507 -25.862535 -14.463076 -51.877151 9.683858 -3.659951 -30.778718 41.348695 22.099880 11.522786 8.750288 -26.276714 2.845224 46.858697 -47.836145 38.685263 40.642002 -67.860648 -13.941703 -15.183437 3.014785 8.799334 0.372221 1.092028 5.309738 0.813398 1.603143 -4.727207 -2.433311 4.787852 0.050171 0.341174 -0.036114 11.255823 -0.565937 0.355538 0.022130 0.557967 -2.477512 -3.327623 -0.820095 2.889535 0.031133 0.244503 0.040697 
-21.882174 -11.823599 83.220253 5.316515 6.632642 -116.435273 2.494519 0.780062 1.775556 1.112415 0.315730 0.791083 1.112415 0.315729 0.791087 0.834719 0.235360 0.593886 16.474729 -7.072319 -20.439117 -5.066860 -5.914874 -39.674516 -8.061137 -0.885407 -17.651353 -59.226216 -25.346735 -11.912449 -53.274243 9.620469 -3.074130 -34.630138 42.071223 26.045072 11.655848 8.692542 -26.353810 2.695004 46.773030 -47.624215 38.898119 41.534886 -67.929790 -13.921995 -14.454511 4.151007 8.670488 0.372743 1.282809 5.339003 0.810484 1.768124 -4.712970 -2.566341 4.798276 0.085055 0.389186 -0.029990 11.245317 -0.564753 0.684123 -0.000979 0.566255 -2.410947 -3.285412 -0.886908 2.945730 0.006890 0.253814 0.033736 
-21.811350 -11.827845 83.224716 5.337984 6.581933 -116.868635 2.452288 0.858018 1.828357 1.093986 0.359026 0.818057 1.093987 0.359026 0.818062 0.820970 0.267807 0.614187 16.101894 -6.991525 -20.856910 -5.652374 -5.537569 -40.417959 -8.366035 -0.696759 -17.584240 -59.295399 -24.981622 -9.216662 -54.528429 9.451641 -2.572239 -36.611597 42.560961 28.284647 11.704796 8.717796 -26.422483 2.502790 46.664901 -47.280694 39.270162 41.832190 -68.044988 -12.840650 -13.888867 4.754475 8.515610 0.393590 1.501683 5.376503 0.792882 2.028445 -4.669285 -2.685211 4.661709 0.099828 0.435744 -0.024339 11.232787 -0.535937 1.040835 -0.036534 0.570433 -2.290752 -3.250078 -0.951886 2.903176 -0.003181 0.264077 0.025855 
-21.728752 -11.826566 83.228256 5.360132 6.518542 -117.342636 2.428044 0.923673 1.892568 1.082165 0.398333 0.850131 1.082166 0.398332 0.850127 0.812176 0.297245 0.638304 15.710533 -6.918327 -21.236551 -6.276044 -5.177105 -41.094578 -8.522138 -0.489969 -17.599393 -59.276015 -24.908122 -6.481585 -55.788176 9.003325 -2.049003 -37.710274 43.012853 29.682172 11.725083 8.709791 -26.484876 2.491398 46.550608 -47.076717 39.472015 41.123630 -68.009696 -12.639069 -12.845737 5.465709 8.320472 0.410404 1.762954 5.447866 0.778325 2.304281 -4.622793 -2.782023 4.564970 0.108434 0.454831 -0.016821 11.208039 -0.498253 1.440072 -0.075519 0.560701 -2.079555 -3.218550 -1.010544 2.815679 -0.007669 0.276934 0.017788 
-21.642532 -11.826340 83.231201 5.372810 6.447754 -117.855543 2.419830 0.971610 1.963626 1.076911 0.427761 0.886181 1.076913 0.427761 0.886179 0.808303 0.319261 0.665393 15.286049 -6.845693 -21.592801 -6.960125 -4.812075 -41.728990 -8.530028 -0.267474 -17.670143 -59.317850 -25.132248 -3.741175 -56.968531 8.309086 -1.453335 -38.912947 43.385655 31.060893 11.776153 8.671813 -26.565898 2.585713 46.418089 -47.032823 39.224376 40.538791 -67.606674 -13.315514 -11.148392 6.306837 8.098900 0.394575 2.078299 5.537630 0.812820 2.484487 -4.581872 -2.902262 4.493573 0.125624 0.473892 -0.011157 11.179275 -0.441406 1.881309 -0.124577 0.538039 -1.853041 -3.183828 -1.071451 2.761677 -0.014052 0.295300 0.009842 
-21.556423 -11.828074 83.232910 5.374927 6.369848 -118.402777 2.404061 0.991290 2.026521 1.069564 0.438985 0.919918 1.069564 0.438985 0.919913 0.802832 0.327630 0.690708 14.854212 -6.743144 -21.917384 -7.650050 -4.398896 -42.293604 -8.499748 -0.016109 -17.757780 -59.366017 -25.644319 -0.927055 -57.960227 7.559222 -0.770685 -40.654731 43.631242 32.903197 11.813584 8.728085 -26.671083 2.624646 46.224702 -46.877911 38.743736 40.918673 -67.126416 -14.129682 -9.655177 7.259953 7.852278 0.392008 2.416450 5.655091 0.856814 2.609417 -4.567626 -3.015509 4.500748 0.151009 0.466605 -0.004570 11.145298 -0.374659 2.325933 -0.177194 0.510668 -1.666758 -3.147158 -1.132550 2.716649 -0.024599 0.313305 0.003030 
-21.466562 -11.828902 83.232170 5.361740 6.290387 -118.981431 2.377495 0.993372 2.077636 1.059458 0.438051 0.948387 1.059458 0.438051 0.948391 0.795272 0.326896 0.712048 14.443038 -6.602314 -22.192258 -8.296305 -3.937531 -42.751677 -8.590409 0.305940 -17.887985 -59.114864 -26.421813 2.073315 -58.788907 6.851019 -0.079604 -42.498441 43.804069 34.836379 11.878332 8.791535 -26.822622 2.332343 46.097281 -46.404138 38.674041 41.605838 -66.977074 -14.294995 -9.296668 7.807769 7.617719 0.393451 2.768879 5.732564 0.911521 2.795214 -4.585403 -3.093791 4.432008 0.206680 0.432338 -0.002056 11.101496 -0.300855 2.752566 -0.226048 0.499431 -1.520240 -3.109697 -1.195789 2.741664 -0.037857 0.321316 0.000727 
